<?xml version="1.0" encoding="UTF-8"?>
<svg width="128" height="128" version="1.1" viewBox="0 0 33.867 33.867" xmlns="http://www.w3.org/2000/svg">
 <g display="none">
  <path transform="scale(.26458)" d="m64 1.0684a62.932 62.932 0 0 0-62.932 62.932 62.932 62.932 0 0 0 62.932 62.932 62.932 62.932 0 0 0 62.932-62.932 62.932 62.932 0 0 0-8.4023-31.26 21.314 21.314 0 0 1-17.691 9.4434 21.314 21.314 0 0 1-21.314-21.314 21.314 21.314 0 0 1 6.8379-15.617 62.932 62.932 0 0 0-22.361-4.1836z" fill="#acdb46" stroke="#25476a" stroke-linecap="square" stroke-miterlimit="0" stroke-width="2" style="paint-order:stroke fill markers"/>
 </g>
 <g>
  <circle cx="26.187" cy="6.8504" r="4.3494" fill="#ffe310" style="paint-order:stroke fill markers"/>
  <path d="m7.0882 26.91s-2.6202-18.881 4.7957-19.918c6.465-0.9042 7.5549 15.372 9.3971 13.494 1.371-1.398 1.6643-7.1808 1.6643-7.1808s0.71923 0.98634 2.0304 1.0814c1.3112 0.095 2.252-0.30101 2.252-0.30101s-2.2358 13.998-6.7934 12.566c-4.5576-1.4324-2.4288-14.414-8.0087-14.73-2.2306-0.12624-3.2943 3.3039-3.8456 5.4897-0.78371 3.1077-1.4918 9.4987-1.4918 9.4987z" fill="#acdb47" style="paint-order:stroke fill markers"/>
 </g>
</svg>
